<svg width="16" height="14" viewBox="0 0 16 14" fill="none" xmlns="http://www.w3.org/2000/svg">
<path d="M13.3334 5.99984C13.1566 5.99984 12.987 6.07008 12.862 6.1951C12.737 6.32012 12.6667 6.48969 12.6667 6.6665V11.3332C12.6667 11.51 12.5965 11.6796 12.4715 11.8046C12.3465 11.9296 12.1769 11.9998 12.0001 11.9998H2.66675C2.48994 11.9998 2.32037 11.9296 2.19534 11.8046C2.07032 11.6796 2.00008 11.51 2.00008 11.3332V5.99984C2.00008 5.82303 2.07032 5.65346 2.19534 5.52843C2.32037 5.40341 2.48994 5.33317 2.66675 5.33317H4.00008C4.14546 5.34076 4.28932 5.30055 4.4097 5.21869C4.53008 5.13684 4.62036 5.01782 4.66675 4.87984L5.02675 3.7865C5.07147 3.65409 5.15668 3.53908 5.27033 3.45773C5.38398 3.37638 5.52032 3.33281 5.66008 3.33317H9.33341C9.51023 3.33317 9.67979 3.26293 9.80482 3.13791C9.92984 3.01288 10.0001 2.84331 10.0001 2.6665C10.0001 2.48969 9.92984 2.32012 9.80482 2.1951C9.67979 2.07008 9.51023 1.99984 9.33341 1.99984H5.62675C5.20778 2.00062 4.79964 2.13296 4.45993 2.37817C4.12021 2.62339 3.86609 2.9691 3.73341 3.3665L3.52008 4.03317H2.66675C2.13631 4.03317 1.62761 4.24388 1.25253 4.61896C0.877462 4.99403 0.666748 5.50274 0.666748 6.03317V11.3665C0.666748 11.8969 0.877462 12.4056 1.25253 12.7807C1.62761 13.1558 2.13631 13.3665 2.66675 13.3665H12.0001C12.5305 13.3665 13.0392 13.1558 13.4143 12.7807C13.7894 12.4056 14.0001 11.8969 14.0001 11.3665V6.69984C14.0046 6.60953 13.9907 6.51924 13.9592 6.43447C13.9278 6.3497 13.8794 6.27221 13.817 6.20673C13.7546 6.14125 13.6796 6.08914 13.5965 6.05358C13.5133 6.01801 13.4238 5.99972 13.3334 5.99984ZM7.33341 5.33317C6.806 5.33317 6.29043 5.48957 5.85189 5.78258C5.41336 6.0756 5.07157 6.49208 4.86974 6.97935C4.6679 7.46662 4.61509 8.00279 4.71799 8.52008C4.82088 9.03736 5.07486 9.51251 5.4478 9.88545C5.82074 10.2584 6.29589 10.5124 6.81317 10.6153C7.33046 10.7182 7.86663 10.6653 8.3539 10.4635C8.84117 10.2617 9.25765 9.91989 9.55067 9.48136C9.84368 9.04283 10.0001 8.52725 10.0001 7.99984C10.0001 7.29259 9.71913 6.61432 9.21903 6.11422C8.71894 5.61412 8.04066 5.33317 7.33341 5.33317ZM7.33341 9.33317C7.06971 9.33317 6.81192 9.25497 6.59265 9.10846C6.37339 8.96195 6.20249 8.75372 6.10157 8.51008C6.00066 8.26645 5.97425 7.99836 6.0257 7.73972C6.07715 7.48108 6.20414 7.2435 6.39061 7.05703C6.57708 6.87056 6.81465 6.74357 7.07329 6.69212C7.33194 6.64068 7.60002 6.66708 7.84366 6.768C8.08729 6.86891 8.29553 7.03981 8.44204 7.25908C8.58855 7.47834 8.66675 7.73613 8.66675 7.99984C8.66675 8.35346 8.52627 8.6926 8.27622 8.94265C8.02617 9.19269 7.68704 9.33317 7.33341 9.33317ZM14.6667 1.99984H14.0001V1.33317C14.0001 1.15636 13.9298 0.98679 13.8048 0.861766C13.6798 0.736742 13.5102 0.666504 13.3334 0.666504C13.1566 0.666504 12.987 0.736742 12.862 0.861766C12.737 0.98679 12.6667 1.15636 12.6667 1.33317V1.99984H12.0001C11.8233 1.99984 11.6537 2.07008 11.5287 2.1951C11.4037 2.32012 11.3334 2.48969 11.3334 2.6665C11.3334 2.84331 11.4037 3.01288 11.5287 3.13791C11.6537 3.26293 11.8233 3.33317 12.0001 3.33317H12.6667V3.99984C12.6667 4.17665 12.737 4.34622 12.862 4.47124C12.987 4.59627 13.1566 4.6665 13.3334 4.6665C13.5102 4.6665 13.6798 4.59627 13.8048 4.47124C13.9298 4.34622 14.0001 4.17665 14.0001 3.99984V3.33317H14.6667C14.8436 3.33317 15.0131 3.26293 15.1382 3.13791C15.2632 3.01288 15.3334 2.84331 15.3334 2.6665C15.3334 2.48969 15.2632 2.32012 15.1382 2.1951C15.0131 2.07008 14.8436 1.99984 14.6667 1.99984Z" fill="url(#paint0_linear)"/>
<defs>
<linearGradient id="paint0_linear" x1="8.00008" y1="0.666504" x2="8.00008" y2="13.3665" gradientUnits="userSpaceOnUse">
<stop stop-color="#563EEE"/>
<stop offset="1" stop-color="#7112E9"/>
</linearGradient>
</defs>
</svg>
